<svg width="29" height="15" viewBox="0 0 29 15" fill="none" xmlns="http://www.w3.org/2000/svg">
<path d="M0 14.5V7.07259C0 4.48202 1.6357 2.80801 4.16995 2.80801C6.7042 2.80801 8.4054 4.52951 8.4054 7.08921C8.4054 9.64892 6.5006 11.1686 4.61687 11.1686C3.68788 11.1686 2.98821 10.7436 2.45235 10.1238C2.24876 9.88874 2.10368 9.72727 2.10368 9.72727V14.5H0ZM4.18632 4.77171C2.96014 4.77171 2.10368 5.68114 2.10368 6.98711C2.10368 8.29308 2.96014 9.20251 4.18632 9.20251C5.41249 9.20251 6.26895 8.29308 6.26895 6.98711C6.26895 5.68114 5.41249 4.77171 4.18632 4.77171Z" fill="url(#paint0_linear_26917_2497)"/>
<path d="M11.878 0.5H9.77431V11.1686H11.878V0.5Z" fill="url(#paint1_linear_26917_2497)"/>
<path d="M17.4309 11.1662C14.9809 11.1662 13.5769 9.69878 13.5769 7.1367V3.02409H15.6805V7.1367C15.6805 8.93182 16.778 9.20013 17.4309 9.20013C18.0837 9.20013 19.1812 8.93182 19.1812 7.1367V3.02409H21.2849V7.1367C21.2849 9.6964 19.8809 11.1662 17.4309 11.1662Z" fill="url(#paint2_linear_26917_2497)"/>
<path d="M25.6959 11.1662C23.8356 11.1662 22.5392 10.2283 22.4011 8.8131H24.4837C24.582 9.24763 24.9775 9.46845 25.6631 9.46845C26.6576 9.46845 26.8659 9.02442 26.8659 8.65163C26.8659 7.9654 26.199 7.8633 25.4923 7.75882L25.3449 7.73745C23.9175 7.52374 22.5228 7.17469 22.5228 5.47456C22.5228 3.88127 23.7911 2.80801 25.6795 2.80801C27.4064 2.80801 28.6677 3.74355 28.8222 5.11126H26.7535C26.6155 4.72897 26.2388 4.50577 25.7099 4.50577C24.9307 4.50577 24.6545 4.96404 24.6545 5.35583C24.6545 6.00644 25.3449 6.11092 26.075 6.22253L26.1779 6.23914C27.5445 6.43385 29 6.78765 29 8.50441C29 10.1238 27.7013 11.171 25.6935 11.171L25.6959 11.1662Z" fill="url(#paint3_linear_26917_2497)"/>
<defs>
<linearGradient id="paint0_linear_26917_2497" x1="128.134" y1="-2.82656" x2="36.9794" y2="74.9587" gradientUnits="userSpaceOnUse">
<stop stop-color="white"/>
<stop offset="0.26" stop-color="#FF9025"/>
<stop offset="0.41" stop-color="#FF5317"/>
<stop offset="0.63" stop-color="#FF256C"/>
<stop offset="0.83" stop-color="#FF15B8"/>
<stop offset="0.92" stop-color="#BA20AB"/>
</linearGradient>
<linearGradient id="paint1_linear_26917_2497" x1="377.226" y1="-0.116961" x2="318.284" y2="183.254" gradientUnits="userSpaceOnUse">
<stop stop-color="white"/>
<stop offset="0.26" stop-color="#FF9025"/>
<stop offset="0.41" stop-color="#FF5317"/>
<stop offset="0.63" stop-color="#FF256C"/>
<stop offset="0.83" stop-color="#FF15B8"/>
<stop offset="0.92" stop-color="#BA20AB"/>
</linearGradient>
<linearGradient id="paint2_linear_26917_2497" x1="88.6463" y1="-4.64844" x2="-32.3351" y2="73.7482" gradientUnits="userSpaceOnUse">
<stop stop-color="white"/>
<stop offset="0.26" stop-color="#FF9025"/>
<stop offset="0.41" stop-color="#FF5317"/>
<stop offset="0.63" stop-color="#FF256C"/>
<stop offset="0.83" stop-color="#FF15B8"/>
<stop offset="0.92" stop-color="#BA20AB"/>
</linearGradient>
<linearGradient id="paint3_linear_26917_2497" x1="37.1386" y1="0.0298496" x2="-4.83881" y2="12.4616" gradientUnits="userSpaceOnUse">
<stop stop-color="white"/>
<stop offset="0.26" stop-color="#FF9025"/>
<stop offset="0.41" stop-color="#FF5317"/>
<stop offset="0.63" stop-color="#FF256C"/>
<stop offset="0.83" stop-color="#FF15B8"/>
<stop offset="0.92" stop-color="#BA20AB"/>
</linearGradient>
</defs>
</svg>
